<?xml version="1.0" encoding="UTF-8"?>
<svg width="13px" height="13px" viewBox="0 0 13 13" version="1.1" xmlns="http://www.w3.org/2000/svg" xmlns:xlink="http://www.w3.org/1999/xlink">
    <!-- Generator: Sketch 47.1 (45422) - http://www.bohemiancoding.com/sketch -->
    <title>Facebook-black</title>
    <desc>Created with Sketch.</desc>
    <defs></defs>
    <g id="Page-1" stroke="none" stroke-width="1" fill="none" fill-rule="evenodd">
        <g id="home-page" transform="translate(-1013.000000, -7372.000000)" fill="#747474">
            <g id="footer" transform="translate(-1.000000, 6800.000000)">
                <g id="Group-14" transform="translate(171.000000, 120.000000)">
                    <g id="footer">
                        <g id="Group-5" transform="translate(843.000000, 451.000000)">
                            <g id="Facebook-black" transform="translate(0.000000, 1.000000)">
                                <g id="Icons">
                                    <g id="Black">
                                        <path d="M6.94372115,12.9515603 L0.717500333,12.9515603 C0.321119771,12.9515603 0,12.6314388 0,12.236689 L0,0.714821168 C0,0.319970996 0.321170146,0 0.717500333,0 L12.2825503,0 C12.6787795,0 13,0.319970996 13,0.714821168 L13,12.236689 C13,12.6314889 12.6787291,12.9515603 12.2825503,12.9515603 L8.96981177,12.9515603 L8.96981177,7.93600248 L10.6595994,7.93600248 L10.9126211,5.98135057 L8.96981177,5.98135057 L8.96981177,4.7334286 C8.96981177,4.1675118 9.127547,3.78185831 9.94209938,3.78185831 L10.9810217,3.78140582 L10.9810217,2.0331497 C10.8013441,2.00932881 10.184629,1.95610923 9.46712867,1.95610923 C7.96922588,1.95610923 6.94372115,2.86702377 6.94372115,4.53984811 L6.94372115,5.98135057 L5.24959554,5.98135057 L5.24959554,7.93600248 L6.94372115,7.93600248 L6.94372115,12.9515603 L6.94372115,12.9515603 Z" id="Facebook"></path>
                                    </g>
                                </g>
                            </g>
                        </g>
                    </g>
                </g>
            </g>
        </g>
    </g>
</svg>