<?xml version="1.0" encoding="UTF-8"?>
<svg width="134px" height="13px" viewBox="0 0 134 13" version="1.1" xmlns="http://www.w3.org/2000/svg" xmlns:xlink="http://www.w3.org/1999/xlink">
    <!-- Generator: Sketch 48.2 (47327) - http://www.bohemiancoding.com/sketch -->
    <title>HIGHER GROUND</title>
    <desc>Created with Sketch.</desc>
    <defs></defs>
    <g id="Page-1" stroke="none" stroke-width="1" fill="none" fill-rule="evenodd">
        <g id="hg" fill="#FFFFFF">
            <path d="M2.435,11.37 L2.435,12 L0.05,12 L0.05,11.37 L0.5,11.37 C0.725,11.37 0.875,11.22 0.875,10.995 L0.875,1.755 C0.875,1.53 0.725,1.38 0.5,1.38 L0.05,1.38 L0.05,0.75 L2.435,0.75 L2.435,1.38 L1.985,1.38 C1.76,1.38 1.61,1.53 1.61,1.755 L1.61,10.995 C1.61,11.22 1.76,11.37 1.985,11.37 L2.435,11.37 Z M7.7,5.505 L7.7,1.755 C7.7,1.53 7.55,1.38 7.325,1.38 L6.875,1.38 L6.875,0.75 L9.26,0.75 L9.26,1.38 L8.81,1.38 C8.585,1.38 8.435,1.53 8.435,1.755 L8.435,10.995 C8.435,11.22 8.585,11.37 8.81,11.37 L9.26,11.37 L9.26,12 L6.875,12 L6.875,11.37 L7.325,11.37 C7.55,11.37 7.7,11.22 7.7,10.995 L7.7,6.135 L2.21,6.135 L2.21,5.505 L7.7,5.505 Z M13.895,11.37 L13.895,12 L11.51,12 L11.51,11.37 L11.96,11.37 C12.185,11.37 12.335,11.22 12.335,10.995 L12.335,1.755 C12.335,1.53 12.185,1.38 11.96,1.38 L11.51,1.38 L11.51,0.75 L13.895,0.75 L13.895,1.38 L13.445,1.38 C13.22,1.38 13.07,1.53 13.07,1.755 L13.07,10.995 C13.07,11.22 13.22,11.37 13.445,11.37 L13.895,11.37 Z M23,6.36 L27.485,6.36 L27.485,7.08 L26.915,7.08 C26.735,7.08 26.66,7.11 26.66,7.38 L26.66,11.985 L25.925,11.985 L25.925,10.155 C25.07,11.175 23.825,11.925 22.46,12.09 C22.46,12.09 22.115,12.135 21.77,12.135 C21.425,12.135 21.11,12.09 21.11,12.09 L21.095,12.075 L21.095,12.09 C18.23,11.76 15.995,9.315 15.995,6.375 C15.995,3.42 18.23,0.975 21.095,0.645 C21.095,0.645 21.47,0.615 21.815,0.615 C22.16,0.615 22.475,0.645 22.475,0.645 C24.17,0.855 25.64,1.8 26.57,3.135 L25.955,3.525 C25.16,2.37 23.9,1.56 22.46,1.365 C22.37,1.365 22.085,1.335 21.815,1.335 C21.53,1.335 21.095,1.365 21.095,1.365 C18.635,1.695 16.73,3.81 16.73,6.375 C16.73,8.925 18.635,11.04 21.095,11.37 C21.11,11.37 21.47,11.4 21.77,11.4 C22.04,11.4 22.4,11.37 22.46,11.37 C23.96,11.16 25.145,10.14 25.925,8.955 L25.925,7.38 C25.925,7.11 25.85,7.08 25.67,7.08 L23,7.08 L23,6.36 Z M31.745,11.37 L31.745,12 L29.36,12 L29.36,11.37 L29.81,11.37 C30.035,11.37 30.185,11.22 30.185,10.995 L30.185,1.755 C30.185,1.53 30.035,1.38 29.81,1.38 L29.36,1.38 L29.36,0.75 L31.745,0.75 L31.745,1.38 L31.295,1.38 C31.07,1.38 30.92,1.53 30.92,1.755 L30.92,10.995 C30.92,11.22 31.07,11.37 31.295,11.37 L31.745,11.37 Z M37.01,5.505 L37.01,1.755 C37.01,1.53 36.86,1.38 36.635,1.38 L36.185,1.38 L36.185,0.75 L38.57,0.75 L38.57,1.38 L38.12,1.38 C37.895,1.38 37.745,1.53 37.745,1.755 L37.745,10.995 C37.745,11.22 37.895,11.37 38.12,11.37 L38.57,11.37 L38.57,12 L36.185,12 L36.185,11.37 L36.635,11.37 C36.86,11.37 37.01,11.22 37.01,10.995 L37.01,6.135 L31.52,6.135 L31.52,5.505 L37.01,5.505 Z M40.67,12 L40.67,11.37 L41.12,11.37 C41.345,11.37 41.495,11.22 41.495,10.995 L41.495,1.77 C41.495,1.53 41.345,1.38 41.12,1.38 L40.67,1.38 L40.67,0.75 L46.88,0.75 L46.88,2.355 L46.25,2.355 L46.25,1.755 C46.25,1.53 46.1,1.38 45.875,1.38 L42.605,1.38 C42.38,1.38 42.23,1.53 42.23,1.77 L42.23,10.995 C42.23,11.22 42.38,11.37 42.605,11.37 L45.875,11.37 C46.1,11.37 46.25,11.22 46.25,10.995 L46.25,10.395 L46.88,10.395 L46.88,12 L40.67,12 Z M42.83,5.505 L45.485,5.505 L45.485,6.135 L42.83,6.135 L42.83,5.505 Z M48.755,0.75 L50.315,0.75 L50.315,10.995 C50.315,11.22 50.465,11.37 50.69,11.37 L51.14,11.37 L51.14,12 L48.755,12 L48.755,11.37 L49.205,11.37 C49.43,11.37 49.58,11.22 49.58,10.995 L49.58,1.86 C49.58,1.62 49.43,1.47 49.205,1.47 L48.755,1.47 L48.755,0.75 Z M54.695,3.765 C54.695,5.46 53.36,6.78 51.68,6.78 L50.9,6.78 L50.9,6.06 L51.68,6.06 C52.955,6.06 53.96,5.055 53.96,3.765 C53.96,2.475 52.955,1.47 51.68,1.47 L50.9,1.47 L50.9,0.75 L51.68,0.75 C53.36,0.75 54.695,2.07 54.695,3.765 Z M56.285,11.25 L56.75,11.25 L56.75,11.985 L55.82,11.985 C55.52,11.985 55.325,11.895 55.1,11.625 C54.995,11.505 54.845,11.25 54.845,11.25 L52.52,7.785 L53.135,7.35 L55.415,10.785 L55.43,10.785 C55.7,11.19 55.97,11.25 56.285,11.25 Z M71.18,6.36 L75.665,6.36 L75.665,7.08 L75.095,7.08 C74.915,7.08 74.84,7.11 74.84,7.38 L74.84,11.985 L74.105,11.985 L74.105,10.155 C73.25,11.175 72.005,11.925 70.64,12.09 C70.64,12.09 70.295,12.135 69.95,12.135 C69.605,12.135 69.29,12.09 69.29,12.09 L69.275,12.075 L69.275,12.09 C66.41,11.76 64.175,9.315 64.175,6.375 C64.175,3.42 66.41,0.975 69.275,0.645 C69.275,0.645 69.65,0.615 69.995,0.615 C70.34,0.615 70.655,0.645 70.655,0.645 C72.35,0.855 73.82,1.8 74.75,3.135 L74.135,3.525 C73.34,2.37 72.08,1.56 70.64,1.365 C70.55,1.365 70.265,1.335 69.995,1.335 C69.71,1.335 69.275,1.365 69.275,1.365 C66.815,1.695 64.91,3.81 64.91,6.375 C64.91,8.925 66.815,11.04 69.275,11.37 C69.29,11.37 69.65,11.4 69.95,11.4 C70.22,11.4 70.58,11.37 70.64,11.37 C72.14,11.16 73.325,10.14 74.105,8.955 L74.105,7.38 C74.105,7.11 74.03,7.08 73.85,7.08 L71.18,7.08 L71.18,6.36 Z M77.54,0.75 L79.1,0.75 L79.1,10.995 C79.1,11.22 79.25,11.37 79.475,11.37 L79.925,11.37 L79.925,12 L77.54,12 L77.54,11.37 L77.99,11.37 C78.215,11.37 78.365,11.22 78.365,10.995 L78.365,1.86 C78.365,1.62 78.215,1.47 77.99,1.47 L77.54,1.47 L77.54,0.75 Z M83.48,3.765 C83.48,5.46 82.145,6.78 80.465,6.78 L79.685,6.78 L79.685,6.06 L80.465,6.06 C81.74,6.06 82.745,5.055 82.745,3.765 C82.745,2.475 81.74,1.47 80.465,1.47 L79.685,1.47 L79.685,0.75 L80.465,0.75 C82.145,0.75 83.48,2.07 83.48,3.765 Z M85.07,11.25 L85.535,11.25 L85.535,11.985 L84.605,11.985 C84.305,11.985 84.11,11.895 83.885,11.625 C83.78,11.505 83.63,11.25 83.63,11.25 L81.305,7.785 L81.92,7.35 L84.2,10.785 L84.215,10.785 C84.485,11.19 84.755,11.25 85.07,11.25 Z M86.21,6.375 C86.21,3.21 88.805,0.615 91.985,0.615 C95.165,0.615 97.76,3.21 97.76,6.375 C97.76,9.54 95.165,12.135 91.985,12.135 C88.805,12.135 86.21,9.54 86.21,6.375 Z M86.945,6.375 C86.945,9.15 89.21,11.46 91.985,11.46 C94.76,11.46 97.025,9.15 97.025,6.375 C97.025,3.6 94.76,1.29 91.985,1.29 C89.21,1.29 86.945,3.6 86.945,6.375 Z M104.15,12.165 L104.135,12.165 C102.14,12.165 100.535,10.68 100.535,8.64 L100.535,1.755 C100.535,1.53 100.385,1.38 100.16,1.38 L99.71,1.38 L99.71,0.75 L102.095,0.75 L102.095,1.38 L101.645,1.38 C101.42,1.38 101.27,1.53 101.27,1.755 L101.27,8.64 C101.27,10.29 102.545,11.445 104.135,11.445 L104.135,11.475 C104.15,11.46 104.15,11.445 104.15,11.445 C105.74,11.445 107.015,10.29 107.015,8.64 L107.015,1.755 C107.015,1.53 106.865,1.38 106.64,1.38 L106.19,1.38 L106.19,0.75 L108.575,0.75 L108.575,1.38 L108.125,1.38 C107.9,1.38 107.75,1.53 107.75,1.755 L107.75,8.64 C107.75,10.68 106.145,12.165 104.15,12.165 Z M121.655,12.33 L112.235,2.265 L112.235,10.995 C112.235,11.22 112.385,11.37 112.61,11.37 L113.06,11.37 L113.06,12 L110.675,12 L110.675,11.37 L111.125,11.37 C111.35,11.37 111.5,11.22 111.5,10.995 L111.5,0.405 L121.655,11.265 L121.655,12.33 Z M121.655,1.755 L121.655,9.495 L120.92,9.495 L120.92,1.755 C120.92,1.53 120.77,1.38 120.545,1.38 L120.095,1.38 L120.095,0.75 L122.48,0.75 L122.48,1.38 L122.03,1.38 C121.805,1.38 121.655,1.53 121.655,1.755 Z M124.58,0.75 L126.14,0.75 L126.14,12 L124.58,12 L124.58,11.37 L125.03,11.37 C125.255,11.37 125.405,11.22 125.405,10.995 L125.405,1.86 C125.405,1.62 125.255,1.47 125.03,1.47 L124.58,1.47 L124.58,0.75 Z M127.49,12 L126.89,12 L126.89,11.28 L127.49,11.28 C130.235,11.28 132.38,9.12 132.38,6.39 C132.38,3.645 130.235,1.485 127.49,1.485 L126.89,1.485 L126.89,0.75 L127.49,0.75 C130.64,0.75 133.115,3.24 133.115,6.39 C133.115,9.525 130.64,12 127.49,12 Z" id="HIGHER-GROUND"></path>
        </g>
    </g>
</svg>