<?xml version="1.0" encoding="UTF-8"?>
<svg width="15px" height="15px" viewBox="0 0 15 15" version="1.1" xmlns="http://www.w3.org/2000/svg" xmlns:xlink="http://www.w3.org/1999/xlink">
    <!-- Generator: Sketch 47.1 (45422) - http://www.bohemiancoding.com/sketch -->
    <title>Instagram-black</title>
    <desc>Created with Sketch.</desc>
    <defs></defs>
    <g id="Page-1" stroke="none" stroke-width="1" fill="none" fill-rule="evenodd">
        <g id="home-page" transform="translate(-1095.000000, -7371.000000)" fill="#747474">
            <g id="footer" transform="translate(-1.000000, 6800.000000)">
                <g id="Group-14" transform="translate(171.000000, 120.000000)">
                    <g id="footer">
                        <g id="Group-5" transform="translate(843.000000, 451.000000)">
                            <g id="Instagram-black" transform="translate(82.000000, 0.000000)">
                                <g id="Icons">
                                    <g id="Black">
                                        <path d="M7.35735167,0 C5.3592041,0 5.10865459,0.00843796253 4.32391643,0.0441099469 C3.54081375,0.0796942777 3.00598256,0.20361517 2.53800167,0.384826127 C2.05419178,0.57211817 1.64389087,0.82275235 1.23484562,1.23024443 C0.825829498,1.63776552 0.57425793,2.04653759 0.386265402,2.52854475 C0.204376704,2.99478188 0.0799923395,3.52762022 0.044274921,4.30780496 C0.00846952106,5.08961908 0,5.33923501 0,7.32993723 C0,9.32061012 0.00846952106,9.57022605 0.044274921,10.3520402 C0.0799923395,11.1322249 0.204376704,11.6650633 0.386265402,12.1313004 C0.57425793,12.6133075 0.825829498,13.0220796 1.23484562,13.4296007 C1.64389087,13.8370928 2.05419178,14.087727 2.53800167,14.2750483 C3.00598256,14.45623 3.54081375,14.5801509 4.32391643,14.6157352 C5.10865459,14.6514072 5.3592041,14.6598451 7.35735167,14.6598451 C9.35546981,14.6598451 9.60601932,14.6514072 10.3907575,14.6157352 C11.1738602,14.5801509 11.7086914,14.45623 12.1766722,14.2750483 C12.6604821,14.087727 13.070783,13.8370928 13.4798283,13.4296007 C13.8888444,13.0220796 14.140416,12.6133075 14.3284379,12.1313004 C14.5102972,11.6650633 14.6346816,11.1322249 14.670399,10.3520402 C14.7062044,9.57022605 14.7146739,9.32061012 14.7146739,7.32993723 C14.7146739,5.33923501 14.7062044,5.08961908 14.670399,4.30780496 C14.6346816,3.52762022 14.5102972,2.99478188 14.3284379,2.52854475 C14.140416,2.04653759 13.8888444,1.63776552 13.4798283,1.23024443 C13.070783,0.82275235 12.6604821,0.57211817 12.1766722,0.384826127 C11.7086914,0.20361517 11.1738602,0.0796942777 10.3907575,0.0441099469 C9.60601932,0.00843796253 9.35546981,0 7.35735167,0 Z M7.35735167,1.32070453 C9.32182563,1.32070453 9.55453084,1.32818227 10.3303326,1.36344684 C11.0476656,1.39603445 11.4372311,1.515445 11.6964837,1.61582676 C12.0399052,1.74879644 12.2849937,1.90763251 12.5424355,2.16414437 C12.7999067,2.42062691 12.9593369,2.66480221 13.0928039,3.00694406 C13.1935611,3.26523068 13.3134182,3.65334458 13.3461277,4.3680047 C13.3815241,5.14091571 13.3890299,5.37275383 13.3890299,7.32993723 C13.3890299,9.2870913 13.3815241,9.51892942 13.3461277,10.2918404 C13.3134182,11.0065006 13.1935611,11.3946145 13.0928039,11.6529011 C12.9593369,11.9950429 12.7999067,12.2392182 12.5424355,12.4957008 C12.2849937,12.7522126 12.0399052,12.9110487 11.6964837,13.0440184 C11.4372311,13.1444001 11.0476656,13.2638107 10.3303326,13.2963983 C9.55464764,13.3316629 9.32197155,13.3391406 7.35735167,13.3391406 C5.39270236,13.3391406 5.1600554,13.3316629 4.38434132,13.2963983 C3.66700833,13.2638107 3.27744285,13.1444001 3.01819022,13.0440184 C2.67476874,12.9110487 2.42968021,12.7522126 2.17223841,12.4957008 C1.9147963,12.2392182 1.75533706,11.9950429 1.62187006,11.6529011 C1.52111286,11.3946145 1.40125571,11.0065006 1.36854622,10.2918404 C1.33314976,9.51892942 1.32564405,9.2870913 1.32564405,7.32993723 C1.32564405,5.37275383 1.33314976,5.14091571 1.36854622,4.3680047 C1.40125571,3.65334458 1.52111286,3.26523068 1.62187006,3.00694406 C1.75533706,2.66480221 1.91476718,2.42062691 2.17223841,2.16414437 C2.42968021,1.90763251 2.67476874,1.74879644 3.01819022,1.61582676 C3.27744285,1.515445 3.66700833,1.39603445 4.38434132,1.36344684 C5.16014307,1.32818227 5.39284828,1.32070453 7.35735167,1.32070453 Z M7.35735167,3.56591051 C5.27074224,3.56591051 3.57924725,5.25110277 3.57924725,7.32993723 C3.57924725,9.40874236 5.27074224,11.0939346 7.35735167,11.0939346 C9.44393167,11.0939346 11.1354267,9.40874236 11.1354267,7.32993723 C11.1354267,5.25110277 9.44393167,3.56591051 7.35735167,3.56591051 Z M7.35735167,9.77323009 C6.00288218,9.77323009 4.9048913,8.67933046 4.9048913,7.32993723 C4.9048913,5.98051467 6.00288218,4.88661504 7.35735167,4.88661504 C8.71179173,4.88661504 9.80978261,5.98051467 9.80978261,7.32993723 C9.80978261,8.67933046 8.71179173,9.77323009 7.35735167,9.77323009 Z M12.1675896,3.41720013 C12.1675896,3.90298983 11.7722998,4.2967774 11.2846932,4.2967774 C10.7971158,4.2967774 10.4018263,3.90298983 10.4018263,3.41720013 C10.4018263,2.93141043 10.7971158,2.53759354 11.2846932,2.53759354 C11.7722998,2.53759354 12.1675896,2.93141043 12.1675896,3.41720013 Z" id="Instagram"></path>
                                    </g>
                                </g>
                            </g>
                        </g>
                    </g>
                </g>
            </g>
        </g>
    </g>
</svg>