<?xml version="1.0" encoding="UTF-8"?>
<svg width="54px" height="25px" viewBox="0 0 54 25" version="1.1" xmlns="http://www.w3.org/2000/svg" xmlns:xlink="http://www.w3.org/1999/xlink">
    <!-- Generator: Sketch 47.1 (45422) - http://www.bohemiancoding.com/sketch -->
    <title>Page 1</title>
    <desc>Created with Sketch.</desc>
    <defs></defs>
    <g id="Page-1" stroke="none" stroke-width="1" fill="none" fill-rule="evenodd">
        <g id="home-page" transform="translate(-170.000000, -7371.000000)" fill="#FFFFFF">
            <g id="footer" transform="translate(-1.000000, 6800.000000)">
                <g id="Group-14" transform="translate(171.000000, 120.000000)">
                    <g id="footer">
                        <g id="other-cafes" transform="translate(0.000000, 442.000000)">
                            <g id="Page-1" transform="translate(0.000000, 9.000000)">
                                <path d="M53.9381405,16.6369359 C53.9381405,18.1380589 53.5251023,19.5459828 52.807026,20.7595852 C52.4365832,21.3851203 51.9860336,21.9602956 51.4659573,22.4685932 C50.947942,22.9762193 50.359713,23.4158934 49.7194076,23.777812 C48.4785069,24.4797595 47.037545,24.8841146 45.4984763,24.8841146 L29.0129496,24.8841146 C28.7984611,24.8841146 28.6232702,24.7128915 28.6232702,24.503395 L28.6232702,0.521149392 C28.6232702,0.311652896 28.7984611,0.140429799 29.0129496,0.140429799 L45.4984763,0.140429799 C47.037545,0.140429799 48.4785069,0.543441968 49.7194076,1.24552381 C50.359713,1.60865107 50.947942,2.04899659 51.4659573,2.55474262 C51.9860336,3.06290592 52.4365832,3.63808123 52.807026,4.26442204 C53.5251023,5.47721874 53.9381405,6.88527692 53.9381405,8.38707135 C53.9381405,9.88994012 53.5251023,11.2979983 52.807026,12.5122722 C53.5251023,13.7257404 53.9381405,15.1332614 53.9381405,16.6369359" id="Fill-1"></path>
                                <g id="Group-5" transform="translate(0.000000, 0.044719)">
                                    <path d="M25.1785786,0.445824658 C25.2537389,0.249891718 25.1402427,0.0895463227 24.926029,0.0895463227 L0.38969313,0.0895463227 C0.17520458,0.0895463227 1.37404568e-05,0.26076942 1.37404568e-05,0.470265916 L1.37404568e-05,24.4633893 C1.37404568e-05,24.6728858 0.17520458,24.8441089 0.38969313,24.8441089 L24.926029,24.8441089 C25.1402427,24.8441089 25.2537389,24.6837635 25.1785786,24.4878305 L20.5561511,12.4620602 L25.1785786,0.445824658 Z" id="Fill-3"></path>
                                </g>
                            </g>
                        </g>
                    </g>
                </g>
            </g>
        </g>
    </g>
</svg>