<?xml version="1.0" encoding="UTF-8"?>
<svg width="107px" height="36px" viewBox="0 0 107 36" version="1.1" xmlns="http://www.w3.org/2000/svg" xmlns:xlink="http://www.w3.org/1999/xlink">
    <!-- Generator: Sketch 47.1 (45422) - http://www.bohemiancoding.com/sketch -->
    <title>Logo</title>
    <desc>Created with Sketch.</desc>
    <defs></defs>
    <g id="Page-1" stroke="none" stroke-width="1" fill="none" fill-rule="evenodd">
        <g id="home-page" transform="translate(-31.000000, -31.000000)" fill="#000000">
            <g id="Logo" transform="translate(31.000000, 31.000000)">
                <polygon id="Fill-1" points="64.7969474 2.11853933 68.6741413 2.11853933 68.6741413 16.1895421 70.4208199 16.1895421 70.4208199 2.11853933 74.2909003 2.11853933 74.2909003 0.522494395 64.7969474 0.522494395"></polygon>
                <g id="Group-20" transform="translate(0.000000, 0.112570)">
                    <path d="M84.0326427,14.6374775 C80.5976759,14.6374775 77.8136011,11.762441 77.8136011,8.24401668 C77.8136011,4.72529297 80.5899695,1.85055587 84.0326427,1.85055587 C87.4797618,1.85055587 90.2546482,4.72529297 90.2546482,8.24401668 C90.2546482,11.762441 87.473241,14.6374775 84.0326427,14.6374775 M84.0326427,0.18684893 C79.6346759,0.18684893 76.0687008,3.79509008 76.0687008,8.24401668 C76.0687008,12.6929433 79.6346759,16.3014838 84.0326427,16.3014838 C88.4350554,16.3014838 92.0001413,12.6929433 92.0001413,8.24401668 C92.0001413,3.79509008 88.4350554,0.18684893 84.0326427,0.18684893" id="Fill-2"></path>
                    <path d="M97.364072,2.0046516 L99.3656537,2.0046516 C101.083878,2.0046516 102.60559,2.88725157 102.60559,4.90813008 C102.60559,6.91463789 101.088917,7.8047226 99.3861053,7.8047226 L97.364072,7.8047226 L97.364072,2.0046516 Z M97.364072,9.39178586 L99.6084044,9.39178586 C102.232127,9.39178586 104.350194,7.69215219 104.350194,4.90813008 C104.350194,2.1034501 102.224125,0.410103611 99.5953629,0.410103611 L95.6194681,0.410103611 L95.6194681,16.076852 L97.364072,16.076852 L97.364072,9.39178586 Z" id="Fill-4"></path>
                    <path d="M3.76607396,26.8305902 L1.74552271,26.8305902 L1.74552271,21.0329143 L3.74621524,21.0329143 C5.46325402,21.0329143 6.98585512,21.9146161 6.98585512,23.9348958 C6.98585512,25.9434993 5.47125679,26.8305902 3.76607396,26.8305902 M3.97503518,19.4383663 L2.96398939e-05,19.4383663 L2.96398939e-05,35.1039171 L1.74552271,35.1039171 L1.74552271,28.418851 L3.98837313,28.418851 C6.61328172,28.418851 8.730459,26.7195167 8.730459,23.9348958 C8.730459,21.131114 6.60557535,19.4383663 3.97503518,19.4383663" id="Fill-6"></path>
                    <path d="M12.6279266,30.776333 L15.8957244,23.3688403 L18.8866856,30.776333 L12.6279266,30.776333 Z M8.76999861,35.1040069 L10.6885886,35.1040069 L11.8996745,32.3705816 L19.5432091,32.3705816 L20.6520374,35.1040069 L22.5276496,35.1040069 L15.9644889,18.9902702 L8.76999861,35.1040069 Z" id="Fill-8"></path>
                    <path d="M30.3539141,33.5100577 L27.8611994,33.5100577 L27.8611994,21.0327047 L29.4742022,21.0327047 C33.5384238,21.0327047 36.7306399,23.3203392 36.7306399,27.2713812 C36.7306399,30.7407057 34.0446731,33.5100577 30.3539141,33.5100577 M29.4267784,19.4384561 L26.1157064,19.4384561 L26.1157064,35.1040069 L30.3127147,35.1040069 C35.1935152,35.1040069 38.4823573,31.5939655 38.4823573,27.2713812 C38.4823573,22.3901363 34.4794903,19.4384561 29.4267784,19.4384561" id="Fill-10"></path>
                    <path d="M46.432072,33.5100577 L43.9396537,33.5100577 L43.9396537,21.0327047 L45.5529529,21.0327047 C49.6168781,21.0327047 52.8099834,23.3203392 52.8099834,27.2713812 C52.8099834,30.7407057 50.1231274,33.5100577 46.432072,33.5100577 M45.5049363,19.4384561 L42.1950499,19.4384561 L42.1950499,35.1040069 L46.391169,35.1040069 C51.2713767,35.1040069 54.561108,31.5939655 54.561108,27.2713812 C54.561108,22.3901363 50.5591302,19.4384561 45.5049363,19.4384561" id="Fill-12"></path>
                    <path d="M66.1485263,33.6645426 C62.7135596,33.6645426 59.9312632,30.7898055 59.9312632,27.2713812 C59.9312632,23.7529569 62.7073352,20.8779204 66.1485263,20.8779204 C69.5980166,20.8779204 72.3749778,23.7529569 72.3749778,27.2713812 C72.3749778,30.7898055 69.5903102,33.6645426 66.1485263,33.6645426 M66.1485263,19.2136147 C61.752338,19.2136147 58.1860665,22.8233528 58.1860665,27.2713812 C58.1860665,31.7203078 61.752338,35.3279502 66.1485263,35.3279502 C70.5530139,35.3279502 74.1183961,31.7203078 74.1183961,27.2713812 C74.1183961,22.8233528 70.5530139,19.2136147 66.1485263,19.2136147" id="Fill-14"></path>
                    <path d="M85.8827645,33.6645426 C82.4131191,33.6645426 79.6240055,30.7898055 79.6240055,27.2713812 C79.6240055,23.7529569 82.4131191,20.8779204 85.8827645,20.8779204 C87.7103601,20.8779204 89.4072438,21.66262 90.5691274,22.901194 L91.8018504,21.8362659 C90.3343795,20.2207606 88.2094958,19.2136147 85.8827645,19.2136147 C81.4640499,19.2136147 77.8773269,22.8233528 77.8773269,27.2713812 C77.8773269,31.7203078 81.4640499,35.3279502 85.8827645,35.3279502 C88.2305402,35.3279502 90.3465319,34.3217024 91.808964,32.698413 L90.6583435,31.5370815 C89.4961634,32.8394254 87.7577839,33.6645426 85.8827645,33.6645426" id="Fill-16"></path>
                    <polygon id="Fill-18" points="98.8988255 26.7960706 106.216618 19.4385759 103.800374 19.4385759 97.1465152 26.1101694 97.1465152 19.4385759 95.4028006 19.4385759 95.4028006 35.1041266 97.1465152 35.1041266 97.1465152 27.5158027 104.378945 35.1041266 106.811194 35.1041266"></polygon>
                </g>
            </g>
        </g>
    </g>
</svg>