<?xml version="1.0" encoding="UTF-8"?>
<svg width="92px" height="45px" viewBox="0 0 92 45" version="1.1" xmlns="http://www.w3.org/2000/svg" xmlns:xlink="http://www.w3.org/1999/xlink">
    <!-- Generator: Sketch 47.1 (45422) - http://www.bohemiancoding.com/sketch -->
    <title>Page 1</title>
    <desc>Created with Sketch.</desc>
    <defs></defs>
    <g id="Page-1" stroke="none" stroke-width="1" fill="none" fill-rule="evenodd">
        <g id="home-page" transform="translate(-260.000000, -7362.000000)" fill="#FFFFFF">
            <g id="footer" transform="translate(-1.000000, 6800.000000)">
                <g id="Group-14" transform="translate(171.000000, 120.000000)">
                    <g id="footer">
                        <g id="other-cafes" transform="translate(0.000000, 442.000000)">
                            <g id="Page-1" transform="translate(90.000000, 0.000000)">
                                <polygon id="Fill-1" points="85.5624628 16.8136132 85.5624628 28.0228585 91.7609982 28.0228585 91.7609982 27.1588019 86.4433982 27.1588019 86.4433982 22.7703113 89.8918412 22.7703113 89.8918412 21.9218208 86.4433982 21.9218208 86.4433982 17.6782358 91.7609982 17.6782358 91.7609982 16.8136132"></polygon>
                                <polygon id="Fill-2" points="45.9315803 0 43.1285526 2.80245283 45.9315803 5.60490566 48.7348911 2.80245283"></polygon>
                                <polygon id="Fill-3" points="43.1286092 42.0277925 45.9316369 44.8302453 48.7349477 42.0277925 45.9316369 39.2256226"></polygon>
                                <g id="Group-20" transform="translate(0.000000, 16.528302)">
                                    <path d="M4.64478277,5.74604717 L2.64257969,5.20151887 C1.63369354,4.92925472 1.05706585,4.16057547 1.05706585,3.10378302 C1.05706585,1.93491509 1.84175508,0.989915094 3.34744123,0.989915094 C4.61279508,0.989915094 5.47759508,1.64651887 5.78190277,3.0075566 L6.66283815,3.0075566 C6.34239508,1.19821698 5.15743508,0.125292453 3.34744123,0.125292453 C1.29739815,0.125292453 0.175847385,1.45434906 0.175847385,3.10378302 C0.175847385,4.52906604 0.928832,5.68180189 2.35440738,6.06614151 L4.292352,6.59482075 C5.47759508,6.91491509 5.95825969,7.76368868 5.95825969,8.6444434 C5.95825969,10.0535943 5.07704123,10.7900094 3.57135508,10.7900094 C2.21003815,10.7900094 1.02507815,9.95736792 0.880708923,8.29208491 L5.66153831e-05,8.29208491 C0.159995077,10.3898208 1.58557046,11.6549151 3.57135508,11.6549151 C5.83002585,11.6549151 6.838912,10.2777453 6.838912,8.6444434 C6.838912,7.04312264 5.84587815,6.06614151 4.64478277,5.74604717" id="Fill-4"></path>
                                    <path d="M26.9708049,7.85985849 C26.9708049,9.84551887 25.7694265,10.7902358 24.3121465,10.7902358 C22.8545834,10.7902358 21.6532049,9.84551887 21.6532049,7.85985849 L21.6532049,0.285424528 L20.7722695,0.285424528 L20.7722695,7.85985849 C20.7722695,10.2134434 22.2779557,11.6551415 24.3121465,11.6551415 C26.3460542,11.6551415 27.8517403,10.2134434 27.8517403,7.85985849 L27.8517403,0.285424528 L26.9708049,0.285424528 L26.9708049,7.85985849 Z" id="Fill-6"></path>
                                    <path d="M34.094464,0.285226415 L30.2825502,11.4947547 L31.1796209,11.4947547 L32.3645809,8.01984906 L36.6251717,8.01984906 L37.8104148,11.4947547 L38.7072025,11.4947547 L34.8952886,0.285226415 L34.094464,0.285226415 Z M32.6369009,7.2030566 L34.4950178,1.74249057 L36.3528517,7.2030566 L32.6369009,7.2030566 Z" id="Fill-8"></path>
                                    <path d="M48.274976,3.27987736 C48.274976,1.56648113 47.0577452,0.285254717 45.1996283,0.285254717 L41.3877145,0.285254717 L41.3877145,11.494783 L42.2686498,11.494783 L42.2686498,6.24223585 L44.5431729,6.24223585 L45.5359237,6.24223585 C45.5455483,6.24138679 45.5543237,6.23940566 45.5636652,6.2385566 L47.3561083,11.494783 L48.252896,11.494783 L46.3993083,6.05516038 C47.5633206,5.63261321 48.274976,4.58374528 48.274976,3.27987736 M45.1996283,5.39346226 L42.2686498,5.39346226 L42.2686498,1.15016038 L45.1996283,1.15016038 C46.3851545,1.15016038 47.3940406,1.90270755 47.3940406,3.27987736 C47.3940406,4.65704717 46.3851545,5.39346226 45.1996283,5.39346226" id="Fill-10"></path>
                                    <polygon id="Fill-12" points="51.8717797 11.4948679 58.070032 11.4948679 58.070032 10.6299623 52.752432 10.6299623 52.752432 6.24203774 56.2011582 6.24203774 56.2011582 5.39383019 52.752432 5.39383019 52.752432 1.15024528 58.070032 1.15024528 58.070032 0.285339623 51.8717797 0.285339623"></polygon>
                                    <path d="M67.6986388,0.125349057 C65.6641649,0.125349057 64.1584788,1.56648113 64.1584788,3.92034906 L64.1584788,7.8599717 C64.1584788,10.2138396 65.6641649,11.6549717 67.6986388,11.6549717 C69.7328295,11.6549717 71.2385157,10.2138396 71.2385157,7.8599717 L71.2385157,3.92034906 C71.2385157,1.56648113 69.7328295,0.125349057 67.6986388,0.125349057 L67.6986388,0.125349057 Z M65.0394142,3.92034906 C65.0394142,1.9349717 66.2410757,0.989971698 67.6986388,0.989971698 C68.8915249,0.989971698 69.9114511,1.62421698 70.2429342,2.94280189 L65.0496049,8.11836792 C65.0447926,8.03346226 65.0394142,7.94912264 65.0394142,7.8599717 L65.0394142,3.92034906 Z M67.6986388,10.790066 C66.5940726,10.790066 65.6375557,10.2463868 65.2389834,9.11912264 L70.3572972,4.01799057 L70.3572972,7.8599717 C70.3572972,9.84563208 69.1556357,10.790066 67.6986388,10.790066 L67.6986388,10.790066 Z" id="Fill-14"></path>
                                    <polygon id="Fill-16" points="81.0463951 9.74923585 75.7287951 0.285367925 74.8478597 0.285367925 74.8478597 11.4948962 75.7287951 11.4948962 75.7287951 2.03074528 81.0463951 11.4948962 81.9270474 11.4948962 81.9270474 0.285367925 81.0463951 0.285367925"></polygon>
                                    <path d="M16.7409428,8.90196226 C16.8122782,8.57762264 16.8538905,8.23149057 16.8538905,7.85960377 L16.8538905,3.92026415 C16.8538905,1.56639623 15.3482043,0.125264151 13.3140135,0.125264151 C11.2798228,0.125264151 9.77441969,1.56639623 9.77441969,3.92026415 L9.77441969,7.85960377 C9.77441969,10.2137547 11.2798228,11.6548868 13.3140135,11.6548868 C14.7095828,11.6548868 15.8560443,10.9764906 16.4386166,9.79007547 L18.1467028,11.4949811 L19.3390228,11.4949811 L16.7409428,8.90196226 Z M13.3140135,10.7899811 C11.8567335,10.7899811 10.6553551,9.84554717 10.6553551,7.85960377 L10.6553551,4.01903774 L15.7719705,9.12498113 C15.3719828,10.248283 14.4168812,10.7899811 13.3140135,10.7899811 L13.3140135,10.7899811 Z M15.9729551,7.85960377 C15.9729551,7.95130189 15.9678597,8.03818868 15.9627643,8.12535849 L10.7694351,2.943 C11.1006351,1.62413208 12.1211274,0.989886792 13.3140135,0.989886792 C14.7715766,0.989886792 15.9729551,1.93488679 15.9729551,3.92026415 L15.9729551,7.85960377 Z" id="Fill-18"></path>
                                </g>
                            </g>
                        </g>
                    </g>
                </g>
            </g>
        </g>
    </g>
</svg>