<?xml version="1.0" encoding="UTF-8"?>
<svg width="17px" height="14px" viewBox="0 0 17 14" version="1.1" xmlns="http://www.w3.org/2000/svg" xmlns:xlink="http://www.w3.org/1999/xlink">
    <!-- Generator: Sketch 47.1 (45422) - http://www.bohemiancoding.com/sketch -->
    <title>twitter-logo-silhouette</title>
    <desc>Created with Sketch.</desc>
    <defs></defs>
    <g id="Page-1" stroke="none" stroke-width="1" fill="none" fill-rule="evenodd">
        <g id="home-page" transform="translate(-1052.000000, -7372.000000)" fill="#747474">
            <g id="footer" transform="translate(-1.000000, 6800.000000)">
                <g id="Group-14" transform="translate(171.000000, 120.000000)">
                    <g id="footer">
                        <g id="Group-5" transform="translate(843.000000, 451.000000)">
                            <g id="twitter-logo-silhouette" transform="translate(39.000000, 1.000000)">
                                <g id="Capa_1">
                                    <path d="M17,1.66588755 C16.3743056,1.94647791 15.7029444,2.13677108 14.9975556,2.22172691 C15.7178056,1.7852249 16.2691389,1.09287149 16.5304444,0.270413655 C15.8548333,0.67464257 15.1090833,0.968164659 14.3144722,1.12728112 C13.6781667,0.440297189 12.7730833,0.0123975904 11.7691944,0.0123975904 C9.84325,0.0123975904 8.28166667,1.59279518 8.28166667,3.5408755 C8.28166667,3.81716466 8.31247222,4.08701606 8.37197222,4.34506024 C5.47402778,4.197751 2.90433333,2.79260643 1.18447222,0.657437751 C0.883833333,1.1777992 0.712805556,1.78412851 0.712805556,2.43136145 C0.712805556,3.65591165 1.32894444,4.73638554 2.26377778,5.36852209 C1.69225,5.34918072 1.15472222,5.19006426 0.684138889,4.92558233 L0.684138889,4.96966265 C0.684138889,6.67906827 1.88666667,8.10571888 3.48116667,8.43041767 C3.18902778,8.5099759 2.88097222,8.55405622 2.56227778,8.55405622 C2.33708333,8.55405622 2.11930556,8.53148193 1.90577778,8.48846988 C2.34980556,9.89147791 3.63733333,10.9117349 5.16280556,10.9397068 C3.96983333,11.8858032 2.46561111,12.4480803 0.831805556,12.4480803 C0.550305556,12.4480803 0.273027778,12.4308755 2.77777799e-05,12.3996988 C1.54355556,13.4027791 3.37602778,13.9876305 5.34552778,13.9876305 C11.76075,13.9876305 15.2674167,8.60997189 15.2674167,3.9462008 L15.2557222,3.48928916 C15.9408889,2.99470683 16.5336389,2.37330924 17,1.66588755 Z" id="Shape"></path>
                                </g>
                            </g>
                        </g>
                    </g>
                </g>
            </g>
        </g>
    </g>
</svg>